<?xml version="1.0" encoding="utf-8"?>
<svg version="1.0" width="350px" height="350px" viewBox="0 0 350 350" preserveAspectRatio="xMidYMid meet" xmlns="http://www.w3.org/2000/svg">
  <g fill="#20C17C">
    <path d="M144.4 315.2 c-3.2 -2.1 -7.2 -5.6 -8.8 -7.8 -1.7 -2.1 -3.2 -4.1 -3.6 -4.4 -2.8 -2.5 -9.9 -16.8 -13.6 -27.2 -2.2 -6.3 -2.4 -8.2 -2.4 -28.3 0 -24.6 -0.5 -26.8 -6.9 -31.2 l-4 -2.8 -0.1 -25.1 0 -25 3.5 -1.7 c3.5 -1.6 3.5 -1.7 3.5 -8 0 -11.4 6.1 -24.8 15.9 -35.1 7.7 -8.1 13.9 -12.5 25.6 -18.1 5.5 -2.6 10.1 -4.9 10.2 -4.9 0.7 -0.5 -2.2 -37.7 -3.9 -48.6 -3.2 -21.2 -3.3 -21.6 -1.1 -22.4 12.7 -5.1 15.8 -5.8 19.3 -4.7 3.7 1.3 14.3 5.3 14.8 5.6 0.1 0.1 -0.4 3.5 -1.2 7.6 -2.9 14.6 -5.6 42 -5.6 56.5 l0 6.3 9.7 4.6 c25.6 12.1 40.6 31.2 41.5 52.8 0.3 6.5 0.4 6.8 3.6 8.3 l3.2 1.5 0 25.2 -0.1 25.2 -3.3 2.5 c-6.4 4.7 -6.6 5.5 -6.6 29.2 0 19.1 -0.2 22.2 -2.1 27.9 -6.9 21.2 -19.9 40 -30.8 44.5 -4.3 1.8 -4.2 1.8 -3.6 -0.8 0.3 -1.3 1 -16.2 1.6 -33.3 1.9 -53.2 2.4 -63.3 3.2 -64.1 0.4 -0.4 5.8 -3.3 12 -6.3 6.1 -3.1 11.2 -6.2 11.1 -6.8 -0.1 -0.7 -0.2 -5.1 -0.2 -9.8 -0.2 -9.2 -0.7 -9.8 -6.4 -7.6 -1.3 0.5 -4.8 1.4 -7.8 2.1 -3 0.7 -7.3 1.8 -9.5 2.5 -2.2 0.7 -6.6 1.8 -9.8 2.5 -6.6 1.5 -6.3 1 -7.1 14.5 -2.1 34.6 -2.5 37.6 -6.2 43.7 -3.1 5.1 -5.4 6.7 -5.4 3.8 0 -0.6 -1.3 -3.2 -3 -5.8 -2.8 -4.6 -3 -5.8 -4.1 -21.3 -2.4 -35.6 -2 -33.2 -5.4 -34.1 -1.6 -0.5 -4.8 -1.3 -7 -1.8 -2.2 -0.4 -9.1 -2.2 -15.3 -3.9 -6.2 -1.7 -11.9 -3.1 -12.7 -3.1 -1.2 0 -1.5 1.8 -1.5 9.8 l0 9.9 11.8 5.8 11.9 5.8 0.6 16.1 c0.4 8.8 1.1 27.6 1.7 41.6 0.5 14 1.2 29.2 1.6 33.8 0.3 4.8 0.2 8.2 -0.4 8.2 -0.5 0 -3.5 -1.7 -6.8 -3.8z" style="fill: rgb(32, 193, 124);"/>
  </g>
</svg>